<svg width="40" height="39" viewBox="0 0 40 39" fill="none" xmlns="http://www.w3.org/2000/svg">
<g filter="url(#filter0_d_10_55)">
<path d="M11.5234 31H5.16602V10.5605H11.5234V31ZM8.31055 7.82617C6.32812 7.82617 4.6875 6.11719 4.6875 4.06641C4.6875 2.08398 6.32812 0.443359 8.31055 0.443359C10.3613 0.443359 12.002 2.08398 12.002 4.06641C12.002 6.11719 10.3613 7.82617 8.31055 7.82617ZM35.2441 31H28.9551V21.0879C28.9551 18.6953 28.8867 15.6875 25.6055 15.6875C22.3242 15.6875 21.8457 18.2168 21.8457 20.8828V31H15.4883V10.5605H21.5723V13.3633H21.6406C22.5293 11.791 24.5801 10.082 27.6562 10.082C34.082 10.082 35.3125 14.3203 35.3125 19.7891V31H35.2441Z" fill="#26235C"/>
</g>
<defs>
<filter id="filter0_d_10_55" x="0.6875" y="0.443359" width="38.625" height="38.5566" filterUnits="userSpaceOnUse" color-interpolation-filters="sRGB">
<feFlood flood-opacity="0" result="BackgroundImageFix"/>
<feColorMatrix in="SourceAlpha" type="matrix" values="0 0 0 0 0 0 0 0 0 0 0 0 0 0 0 0 0 0 127 0" result="hardAlpha"/>
<feOffset dy="4"/>
<feGaussianBlur stdDeviation="2"/>
<feComposite in2="hardAlpha" operator="out"/>
<feColorMatrix type="matrix" values="0 0 0 0 0 0 0 0 0 0 0 0 0 0 0 0 0 0 0.25 0"/>
<feBlend mode="normal" in2="BackgroundImageFix" result="effect1_dropShadow_10_55"/>
<feBlend mode="normal" in="SourceGraphic" in2="effect1_dropShadow_10_55" result="shape"/>
</filter>
</defs>
</svg>
